<?xml version="1.0" encoding="UTF-8" standalone="no"?>
<svg
   width="256"
   height="256"
   viewBox="0 0 67.73 67.73"
   version="1.1"
   id="svg76"
   sodipodi:docname="mediaplayer-app.svg"
   inkscape:version="1.2.2 (b0a8486541, 2022-12-01)"
   xmlns:inkscape="http://www.inkscape.org/namespaces/inkscape"
   xmlns:sodipodi="http://sodipodi.sourceforge.net/DTD/sodipodi-0.dtd"
   xmlns="http://www.w3.org/2000/svg"
   xmlns:svg="http://www.w3.org/2000/svg">
  <sodipodi:namedview
     id="namedview78"
     pagecolor="#ffffff"
     bordercolor="#000000"
     borderopacity="0.25"
     inkscape:showpageshadow="2"
     inkscape:pageopacity="0.0"
     inkscape:pagecheckerboard="0"
     inkscape:deskcolor="#d1d1d1"
     showgrid="false"
     inkscape:zoom="2.9023438"
     inkscape:cx="127.82773"
     inkscape:cy="128"
     inkscape:window-width="1920"
     inkscape:window-height="1052"
     inkscape:window-x="0"
     inkscape:window-y="0"
     inkscape:window-maximized="1"
     inkscape:current-layer="svg76" />
  <defs
     id="defs52">
    <linearGradient
       id="j"
       x1="56"
       x2="56"
       y1="288"
       y2="83.578"
       gradientTransform="matrix(.5 0 0 .5 12 10)"
       gradientUnits="userSpaceOnUse"
       spreadMethod="reflect">
      <stop
         offset="0"
         stop-color="#10101"
         id="stop2" />
      <stop
         offset=".646"
         stop-color="#282828"
         id="stop4" />
      <stop
         offset="1"
         stop-color="#282828"
         stop-opacity="0"
         id="stop6" />
    </linearGradient>
    <clipPath
       id="i">
      <path
         d="M188.969 44C261.617 44 272 54.357 272 126.938v58.124C272 257.644 261.617 268 188.969 268H115.03C42.383 268 32 257.643 32 185.062v-58.125C32 54.358 42.383 44 115.031 44z"
         fill="#b8bb26"
         id="path9" />
    </clipPath>
    <linearGradient
       id="h"
       x1="256"
       x2="256"
       y1="375"
       y2="135.281"
       gradientTransform="matrix(.1323 0 0 .1323 -.036 229.381)"
       gradientUnits="userSpaceOnUse">
      <stop
         offset="0"
         stop-color="#ebdbb2"
         id="stop12" />
      <stop
         offset="1"
         stop-color="#ebdbb2"
         id="stop14" />
    </linearGradient>
    <filter
       id="g"
       x="-0.012293503"
       y="-0.01133"
       width="1.024587"
       height="1.02266"
       color-interpolation-filters="sRGB">
      <feGaussianBlur
         stdDeviation="1.133"
         id="feGaussianBlur17" />
    </filter>
    <linearGradient
       id="f"
       x1="256"
       x2="256"
       y1="138"
       y2="375"
       gradientUnits="userSpaceOnUse">
      <stop
         offset="0"
         stop-opacity="0"
         id="stop20" />
      <stop
         offset=".505"
         id="stop22" />
      <stop
         offset="1"
         stop-opacity="0"
         id="stop24" />
    </linearGradient>
    <linearGradient
       id="e"
       x1="296"
       x2="296"
       y1="-212"
       y2="236"
       gradientUnits="userSpaceOnUse">
      <stop
         offset="0"
         stop-color="#ebdbb2"
         id="stop27" />
      <stop
         offset=".125"
         stop-color="#ebdbb2"
         stop-opacity=".098"
         id="stop29" />
      <stop
         offset=".925"
         stop-opacity=".098"
         id="stop31" />
      <stop
         offset="1"
         stop-opacity=".498"
         id="stop33" />
    </linearGradient>
    <clipPath
       id="d">
      <path
         d="M361.938-212C507.235-212 528-191.287 528-46.125v116.25C528 215.286 507.235 236 361.937 236H214.063C68.766 236 48 215.286 48 70.125v-116.25C48-191.287 68.765-212 214.063-212z"
         fill="#b16286"
         id="path36" />
    </clipPath>
    <linearGradient
       id="c"
       x1="24"
       x2="328"
       y1="28"
       y2="332"
       gradientTransform="matrix(.26458 0 0 .26458 -6.993 221.973)"
       gradientUnits="userSpaceOnUse">
      <stop
         offset="0"
         stop-color="#b16286"
         id="stop39" />
      <stop
         offset=".529"
         stop-color="#b16286"
         id="stop41" />
      <stop
         offset="1"
         stop-color="#b16286"
         id="stop43" />
    </linearGradient>
    <filter
       id="b"
       x="-0.023199999"
       y="-0.024857142"
       width="1.0464"
       height="1.0497143"
       color-interpolation-filters="sRGB">
      <feGaussianBlur
         stdDeviation="2.32"
         id="feGaussianBlur46" />
    </filter>
    <filter
       id="a"
       x="-0.0116"
       y="-0.012428571"
       width="1.0232"
       height="1.0248571"
       color-interpolation-filters="sRGB">
      <feGaussianBlur
         stdDeviation="1.16"
         id="feGaussianBlur49" />
    </filter>
  </defs>
  <path
     transform="matrix(.26458 0 0 .26458 0 3.404)"
     d="M162.537 3.568c72.648 0 83.031 10.357 83.031 82.938v58.125c0 72.58-10.383 82.937-83.031 82.937H88.599c-72.648 0-83.031-10.357-83.031-82.937V86.506c0-72.581 10.383-82.938 83.031-82.938z"
     filter="url(#a)"
     opacity=".1"
     id="path54" />
  <path
     transform="matrix(.26458 0 0 .26458 0 3.404)"
     d="M162.537 5.568c72.648 0 83.031 10.357 83.031 82.938v58.125c0 72.58-10.383 82.937-83.031 82.937H88.599c-72.648 0-83.031-10.357-83.031-82.937V88.506c0-72.581 10.383-82.938 83.031-82.938z"
     filter="url(#b)"
     opacity=".2"
     id="path56" />
  <path
     d="M43.005 233.614c19.221 0 21.968 2.74 21.968 21.944v15.38c0 19.203-2.747 21.943-21.968 21.943H23.442c-19.222 0-21.969-2.74-21.969-21.944v-15.379c0-19.204 2.747-21.944 21.969-21.944z"
     fill="url(#c)"
     transform="translate(0 -229.267)"
     id="path58" />
  <path
     d="M1.473 33.981v7.69c0 19.203 2.747 21.943 21.969 21.943h19.563c19.221 0 21.968-2.74 21.968-21.944v-7.689z"
     fill="#ebdbb2"
     opacity=".1"
     id="path60" />
  <path
     d="M28.37 16.518l-4.655 9.48v7.838a39.714 39.714 0 0 1-2.113 2.282c-2.448 2.448-5.192 4.59-7.028 5.201l-3.092-3.088-9.48 4.655v22.58H35.87v-42.01c-2.04-4.425-4.282-6.075-7.5-6.938zM15.463 46.813h.004a61.68 61.68 0 0 1-.004 0zm-3.187 1.86h.004a68.757 68.757 0 0 1-.004 0z"
     fill-opacity="0"
     opacity=".05"
     id="path62" />
  <path
     transform="matrix(.1323 0 0 .1323 -.036 .114)"
     d="M155.411 138v240s121.725-49.198 221.19-120.076c0-.022-.012-.04-.025-.064a.456.456 0 0 0-.045-.079.611.611 0 0 1-.05-.079.165.165 0 0 1-.026-.075C271.54 184.488 155.411 138 155.411 138z"
     fill="url(#f)"
     filter="url(#filter4415)"
     opacity=".4"
     id="path66" />
  <path
     transform="matrix(.1323 0 0 .1323 -.036 .114)"
     d="M155.411 138v240s121.725-49.198 221.19-120.076c0-.022-.012-.04-.025-.064a.456.456 0 0 0-.045-.079.611.611 0 0 1-.05-.079.165.165 0 0 1-.026-.075C271.54 184.488 155.411 138 155.411 138z"
     filter="url(#g)"
     opacity=".1"
     id="path68" />
  <path
     d="M20.523 247.373v31.75s16.103-6.509 29.262-15.885c0-.003-.002-.005-.004-.01l-.006-.01a.058.058 0 0 1-.006-.01.021.021 0 0 1-.004-.01c-13.88-9.675-29.242-15.825-29.242-15.825z"
     fill="url(#h)"
     transform="translate(0 -229.267)"
     id="path70" />
  <path
     d="M20.523 18.106v.265s15.259 6.106 29.09 15.72l.172-.12c0-.003-.002-.005-.004-.01l-.006-.01a.053.053 0 0 1-.006-.01.021.021 0 0 1-.004-.01c-13.88-9.676-29.242-15.826-29.242-15.826z"
     fill="#ebdbb2"
     id="path72" />
  <path
     transform="matrix(.26458 0 0 .26458 -6.993 -7.294)"
     d="M40 52v16h20V52zm204 0v16h20V52zM40 76v16h20V76zm204 0v16h20V76zM40 100v16h20v-16zm204 0v16h20v-16zM40 124v16h20v-16zm204 0v16h20v-16zM40 148v16h20v-16zm204 0v16h20v-16zM40 172v16h20v-16zm204 0v16h20v-16zM40 196v16h20v-16zm204 0v16h20v-16zM40 220v16h20v-16zm204 0v16h20v-16zM40 244v16h20v-16zm204 0v16h20v-16z"
     clip-path="url(#i)"
     fill="url(#j)"
     opacity=".3"
     id="path74" />
</svg>
