<?xml version="1.0" encoding="UTF-8" standalone="no"?>
<svg
   style="isolation:isolate"
   width="256"
   height="256"
   version="1.1"
   id="svg63"
   sodipodi:docname="firefox.svg"
   inkscape:version="1.2.2 (b0a8486541, 2022-12-01)"
   xmlns:inkscape="http://www.inkscape.org/namespaces/inkscape"
   xmlns:sodipodi="http://sodipodi.sourceforge.net/DTD/sodipodi-0.dtd"
   xmlns="http://www.w3.org/2000/svg"
   xmlns:svg="http://www.w3.org/2000/svg">
  <sodipodi:namedview
     id="namedview65"
     pagecolor="#ffffff"
     bordercolor="#000000"
     borderopacity="0.25"
     inkscape:showpageshadow="2"
     inkscape:pageopacity="0.0"
     inkscape:pagecheckerboard="0"
     inkscape:deskcolor="#d1d1d1"
     showgrid="false"
     inkscape:zoom="2.9023438"
     inkscape:cx="127.82773"
     inkscape:cy="128"
     inkscape:window-width="1920"
     inkscape:window-height="1080"
     inkscape:window-x="0"
     inkscape:window-y="0"
     inkscape:window-maximized="1"
     inkscape:current-layer="svg63" />
  <g
     filter="url(#a)"
     id="g9">
    <linearGradient
       id="b"
       x1=".567"
       x2=".567"
       y1="1.071"
       y2="-.071"
       gradientTransform="matrix(244.648 0 0 228.338 5.676 11.947)"
       gradientUnits="userSpaceOnUse">
      <stop
         offset="0%"
         stop-color="#3c3836"
         id="stop2" />
      <stop
         offset="100%"
         stop-color="#282828"
         id="stop4" />
    </linearGradient>
    <path
       fill="url(#b)"
       d="M165.685 11.947c74.055 0 84.639 10.557 84.639 84.544v59.251c0 73.986-10.584 84.543-84.639 84.543h-75.37c-74.055 0-84.639-10.557-84.639-84.543V96.491c0-73.987 10.584-84.544 84.639-84.544h75.37z"
       id="path7" />
  </g>
  <defs
     id="defs22">
    <filter
       id="a"
       width="1.0842484"
       height="1.1077841"
       x="-0.042124196"
       y="-0.045133094"
       color-interpolation-filters="sRGB"
       filterUnits="objectBoundingBox">
      <feGaussianBlur
         in="SourceGraphic"
         stdDeviation="4.294"
         id="feGaussianBlur11" />
      <feOffset
         dy="4"
         result="pf_100_offsetBlur"
         id="feOffset13" />
      <feFlood
         flood-opacity=".4"
         id="feFlood15" />
      <feComposite
         in2="pf_100_offsetBlur"
         operator="in"
         result="pf_100_dropShadow"
         id="feComposite17" />
      <feBlend
         in="SourceGraphic"
         in2="pf_100_dropShadow"
         id="feBlend19" />
    </filter>
    <linearGradient
       id="k"
       x1="134.524"
       x2="112.328"
       y1="154.08"
       y2="185.34599"
       gradientTransform="matrix(0.67487329,0,0,0.67487329,15.910085,25.650109)"
       gradientUnits="userSpaceOnUse">
      <stop
         offset="0"
         stop-color="#fe8019"
         id="stop48" />
      <stop
         offset="1"
         stop-color="#fb4934"
         id="stop50" />
    </linearGradient>
    <linearGradient
       id="j"
       x1="204.19701"
       x2="228.131"
       y1="139.842"
       y2="179.601"
       gradientTransform="matrix(0.67487329,0,0,0.67487329,15.910085,25.650109)"
       gradientUnits="userSpaceOnUse">
      <stop
         offset="0"
         stop-color="#fe8019"
         id="stop43" />
      <stop
         offset="1"
         stop-color="#fe8019"
         id="stop45" />
    </linearGradient>
    <linearGradient
       id="i"
       x1="143.209"
       x2="104.608"
       y1="185.283"
       y2="222.34"
       gradientTransform="matrix(0.67487329,0,0,0.67487329,15.910085,25.650109)"
       gradientUnits="userSpaceOnUse">
      <stop
         offset="0"
         stop-color="#fe8019"
         id="stop38" />
      <stop
         offset="1"
         stop-color="#fe8019"
         id="stop40" />
    </linearGradient>
    <linearGradient
       id="h"
       x1="112.968"
       x2="134.33"
       y1="77.319"
       y2="102.795"
       gradientTransform="matrix(0.67487329,0,0,0.67487329,15.910085,25.650109)"
       gradientUnits="userSpaceOnUse">
      <stop
         offset="0"
         stop-color="#fb4934"
         id="stop33" />
      <stop
         offset="1"
         stop-color="#cc241d"
         id="stop35" />
    </linearGradient>
    <linearGradient
       id="g"
       x1="224.27"
       x2="207.287"
       y1="82.953003"
       y2="106.885"
       gradientTransform="matrix(0.67487329,0,0,0.67487329,15.910085,25.650109)"
       gradientUnits="userSpaceOnUse">
      <stop
         offset="0"
         stop-color="#fe8019"
         id="stop28-7" />
      <stop
         offset="1"
         stop-color="#fb4934"
         id="stop30-5" />
    </linearGradient>
    <filter
       id="f"
       x="-0.047789957"
       y="-0.048210546"
       width="1.0955799"
       height="1.0964211"
       color-interpolation-filters="sRGB">
      <feGaussianBlur
         stdDeviation="3.186"
         id="feGaussianBlur25" />
    </filter>
  </defs>
  <path
     fill="#504945"
     opacity=".1"
     d="M87.22 11.83h81.549v228.338H87.22V11.83z"
     id="path35" />
  <path
     fill="#504945"
     opacity=".1"
     d="M5.676 126.116v29.626c0 73.986 10.584 84.543 84.639 84.543h75.37c74.055 0 84.639-10.557 84.639-84.543v-29.626H5.676z"
     id="path37" />
  <g
     filter="url(#f)"
     opacity="0.3"
     transform="matrix(1.05538,0,0,1.05538,1.025005,-46.539994)"
     id="g73">
    <path
       d="m 172.68,86.628 c -1.305,0 -11.196,6.237 -26.532,16.732 -13.448,9.203 -24.615,16.732 -24.817,16.732 -0.003,0 -0.34,-0.23 -0.347,-0.233 v 1.332 l 0.148,-0.098 55.885,37.642 V 100.319 C 176.654,86.63 175.785,86.628 172.681,86.628 Z M 69.161,86.24 c -0.643,-0.01 -1.348,0.075 -1.962,0.328 a 4.772,4.772 0 0 0 -2.352,2.114 c -0.238,0.443 -0.226,1.492 -0.226,1.492 v 68.656 c 13.87,-9.149 55.748,-37.226 56.205,-37.533 l 0.158,-0.106 v -1.332 c -0.5,-0.206 -11.09,-7.329 -24.202,-16.287 C 83.482,94.486 71.77,86.788 70.756,86.467 70.387,86.35 69.805,86.248 69.161,86.239 Z"
       id="path67" />
    <path
       d="m 120.826,244.818 v -123.52 c -0.457,0.306 -42.335,28.383 -56.205,37.532 v 0.152 l -11.452,7.841 c -6.3,4.312 -11.692,8.593 -11.984,9.512 -0.292,0.92 -0.126,2.428 0.368,3.351 0.88,1.642 73.934,62.863 77.118,64.626 0.605,0.335 1.408,0.476 2.155,0.506 z m 0,0 c 0.349,0.014 0.723,0.056 0.991,-0.014 0.843,-0.22 19.014,-14.795 40.379,-32.388 34.9,-28.738 38.845,-32.238 38.845,-34.454 0,-2.926 -0.117,-3.032 -13.203,-12.057 l -7.505,-5.174 -0.036,0.213 -59.165,-39.851 -0.306,0.204 z"
       id="path69" />
    <path
       d="m 177.017,158.735 -55.885,-37.642 -0.148,0.098 v 114.837 a 68.59,60.105 0 0 1 18.45,-37.579 l 2.408,-2.555 6.665,-4.69 1.485,-0.77 a 68.59,60.105 0 0 1 25.816,-9.715 c 0.402,-0.485 0.824,-0.997 1.21,-1.473 z m -56.033,-37.544 -0.158,0.106 c -0.457,0.307 -42.335,28.384 -56.205,37.533 v 0.152 l -0.038,0.026 v 20.103 l 0.37,1.478 1.727,1.1 a 68.59,60.105 0 0 1 53.349,52.735 l 0.864,2.435 a 68.59,60.105 0 0 1 0.091,-0.831 z"
       id="path71" />
  </g>
  <path
     d="m 183.26802,44.885464 c -1.37727,0 -11.81603,6.582406 -28.00134,17.658619 -14.19275,9.712662 -25.97818,17.658618 -26.19137,17.658618 -0.003,0 -0.35882,-0.242738 -0.36621,-0.245904 v 1.405766 l 0.15619,-0.103427 58.97992,39.726614 V 59.334672 C 187.4621,44.887575 186.54498,44.885464 183.26908,44.885464 Z"
     fill="url(#g)"
     id="path75"
     style="fill:url(#g);stroke-width:1.05538" />
  <path
     d="m 74.016141,44.475977 c -0.678609,-0.01055 -1.422652,0.07915 -2.070656,0.346165 a 5.0362734,5.0362734 0 0 0 -2.482253,2.231073 c -0.251181,0.467533 -0.238516,1.574627 -0.238516,1.574627 v 72.458168 c 14.63812,-9.65567 58.835324,-39.287575 59.317634,-39.611576 l 0.16675,-0.111871 V 79.956797 C 128.18141,79.739389 117.00493,72.221917 103.16679,62.767823 89.130241,53.178641 76.769627,45.054325 75.699472,44.715548 75.310037,44.592069 74.695806,44.48442 74.016141,44.474922 Z"
     fill="url(#h)"
     id="path77"
     style="fill:url(#h);stroke-width:1.05538" />
  <path
     d="M 128.54235,211.83602 V 81.475489 c -0.48231,0.322946 -44.679514,29.954851 -59.317634,39.610521 v 0.16042 l -12.086212,8.27523 c -6.648894,4.5508 -12.339503,9.06888 -12.647674,10.03878 -0.308171,0.97094 -0.132978,2.56246 0.38838,3.53657 0.928734,1.73294 78.02846,66.34436 81.38879,68.20499 0.63851,0.35355 1.48598,0.50236 2.27435,0.53402 z"
     fill="url(#i)"
     id="path79"
     style="fill:url(#i);stroke-width:1.05538" />
  <path
     d="m 128.541,211.835 c 0.37,0.014 0.764,0.06 1.047,-0.015 0.89,-0.233 20.067,-15.614 42.615,-34.181 36.833,-30.33 40.996,-34.023 40.996,-36.362 0,-3.088 -0.123,-3.2 -13.934,-12.725 l -7.92,-5.46 -0.038,0.225 -62.442,-42.058994 -0.323,0.216 z"
     fill="#fabd2f"
     id="path81" />
  <path
     d="M 187.84521,120.98575 128.86529,81.259136 128.7091,81.362563 V 202.55923 a 72.388514,63.433615 0 0 1 19.47176,-39.66012 l 2.54135,-2.6965 7.03411,-4.94973 1.56724,-0.81264 a 72.388514,63.433615 0 0 1 27.24569,-10.25302 c 0.42426,-0.51186 0.86963,-1.05221 1.27701,-1.55457 z"
     fill="url(#j)"
     id="path83"
     style="fill:url(#j);stroke-width:1.05538" />
  <path
     d="m 128.7091,81.362563 -0.16675,0.111871 c -0.48231,0.324001 -44.679514,29.955906 -59.317634,39.611576 v 0.16042 l -0.0401,0.0274 v 21.2163 l 0.390491,1.55985 1.822641,1.16092 a 72.388514,63.433615 0 0 1 56.303462,55.65546 l 0.91185,2.56985 a 72.388514,63.433615 0 0 1 0.096,-0.87702 z"
     fill="url(#k)"
     id="path85"
     style="fill:url(#k);stroke-width:1.05538" />
</svg>
