<?xml version="1.0" encoding="UTF-8" standalone="no"?>
<svg
   width="256"
   height="256"
   style="isolation:isolate"
   version="1.1"
   id="svg37"
   sodipodi:docname="docker.svg"
   xml:space="preserve"
   inkscape:version="1.2.2 (b0a8486541, 2022-12-01)"
   xmlns:inkscape="http://www.inkscape.org/namespaces/inkscape"
   xmlns:sodipodi="http://sodipodi.sourceforge.net/DTD/sodipodi-0.dtd"
   xmlns:xlink="http://www.w3.org/1999/xlink"
   xmlns="http://www.w3.org/2000/svg"
   xmlns:svg="http://www.w3.org/2000/svg"><sodipodi:namedview
     id="namedview39"
     pagecolor="#ffffff"
     bordercolor="#000000"
     borderopacity="0.25"
     inkscape:showpageshadow="2"
     inkscape:pageopacity="0.0"
     inkscape:pagecheckerboard="0"
     inkscape:deskcolor="#d1d1d1"
     showgrid="false"
     inkscape:zoom="2.0522669"
     inkscape:cx="195.39369"
     inkscape:cy="167.86316"
     inkscape:window-width="1080"
     inkscape:window-height="924"
     inkscape:window-x="0"
     inkscape:window-y="0"
     inkscape:window-maximized="0"
     inkscape:current-layer="svg37" /><g
     filter="url(#a)"
     id="g9"><linearGradient
       id="b"
       x1=".50002"
       x2=".50002"
       y1="-.00051239"
       y2="1"
       gradientTransform="matrix(244.65,0,0,228.34,5.676,11.947)"
       gradientUnits="userSpaceOnUse"><stop
         stop-color="#ebdbb2"
         offset="0"
         id="stop2" /><stop
         stop-color="#ebdbb2"
         offset="1"
         id="stop4" /></linearGradient><path
       d="m165.68 11.947c72.707 0 84.639 12.053 84.639 84.544v59.251c0 72.561-11.932 84.543-84.639 84.543h-75.37c-72.294 0-84.639-11.982-84.639-84.543v-59.251c0-72.491 12.329-84.544 84.639-84.544z"
       fill="url(#b)"
       id="path7" /></g><defs
     id="defs22"><linearGradient
       id="linearGradient1811"
       x1=".50002"
       x2=".50002"
       y1="-.00051239"
       y2="1"
       gradientTransform="matrix(244.65,0,0,228.34,5.676,11.947)"
       gradientUnits="userSpaceOnUse"><stop
         stop-color="#ebdbb2"
         offset="0"
         id="stop1807"
         style="stop-color:#076678;stop-opacity:1;" /><stop
         stop-color="#ebdbb2"
         offset="1"
         id="stop1809"
         style="stop-color:#458588;stop-opacity:1;" /></linearGradient><filter
       id="a"
       x="-0.042124198"
       y="-0.045133094"
       width="1.0842484"
       height="1.1077841"
       color-interpolation-filters="sRGB"><feGaussianBlur
         in="SourceGraphic"
         stdDeviation="4.294"
         id="feGaussianBlur11" /><feOffset
         dy="4"
         result="pf_100_offsetBlur"
         id="feOffset13" /><feFlood
         flood-opacity=".4"
         id="feFlood15" /><feComposite
         in2="pf_100_offsetBlur"
         operator="in"
         result="pf_100_dropShadow"
         id="feComposite17" /><feBlend
         in="SourceGraphic"
         in2="pf_100_dropShadow"
         id="feBlend19" /></filter><linearGradient
       inkscape:collect="always"
       xlink:href="#linearGradient1811"
       id="linearGradient406"
       gradientUnits="userSpaceOnUse"
       gradientTransform="matrix(244.65,0,0,228.34,306.80642,111.34927)"
       x1=".50002"
       y1="-.00051239"
       x2=".50002"
       y2="1" /><clipPath
       clipPathUnits="userSpaceOnUse"
       id="clipPath1813"><path
         style="fill:#000000;stroke-width:0.283356"
         d="M 243.44942,231.46095 V 110.46794 h 181.34781 181.3479 V 231.46095 352.45396 H 424.79723 243.44942 Z m 169.02191,74.2561 c 0.935,-0.1545 2.7839,-0.41709 4.1086,-0.58354 6.207,-0.7799 13.4751,-2.21728 17.8514,-3.53038 0.8572,-0.25719 2.1961,-0.64102 2.9753,-0.85295 1.5213,-0.41378 4.7402,-1.4623 5.6671,-1.84602 0.3117,-0.12904 1.9693,-0.77245 3.6836,-1.42979 2.8734,-1.1018 10.7715,-4.71331 11.7593,-5.37709 0.2338,-0.15709 0.7438,-0.43685 1.1334,-0.6217 0.3896,-0.18485 0.8997,-0.48376 1.1335,-0.66424 0.2337,-0.18048 0.9981,-0.63399 1.6985,-1.00779 0.7004,-0.37381 1.4017,-0.7802 1.5584,-0.9031 0.1568,-0.12289 1.749,-1.18832 3.5382,-2.3676 1.7893,-1.17929 3.5864,-2.41759 3.9936,-2.75179 0.4071,-0.3342 1.2345,-0.99017 1.8386,-1.45771 6.3835,-4.94081 13.571,-12.13295 17.6917,-17.70325 0.3897,-0.52667 0.9757,-1.2855 1.3023,-1.6863 1.0604,-1.30129 4.9316,-6.94749 4.9316,-7.19288 0,-0.0639 0.6375,-1.08316 1.4168,-2.26502 0.7792,-1.18186 1.4167,-2.27426 1.4167,-2.42755 0,-0.15329 0.165,-0.44721 0.3665,-0.65314 0.3776,-0.38582 4.4928,-8.62309 5.5663,-11.14197 0.332,-0.77923 0.7059,-1.60327 0.8308,-1.8312 0.1764,-0.3219 1.0124,-0.43263 3.7448,-0.49598 7.8671,-0.18241 14.2376,-2.00203 19.7459,-5.64005 1.9487,-1.28703 5.6072,-4.85648 6.7928,-6.62734 1.2266,-1.83218 2.6228,-4.47437 2.6228,-4.96338 0,-0.23025 0.1275,-0.41864 0.2833,-0.41864 0.1559,0 0.2823,-0.35066 0.2811,-0.77923 0,-0.62227 -0.2445,-0.91288 -1.2043,-1.44272 -4.919,-2.71538 -7.6859,-3.74323 -11.8956,-4.41897 -4.4728,-0.71799 -7.8966,-0.56409 -12.843,0.5773 -0.945,0.21808 -1.8604,0.3965 -2.0342,0.3965 -0.1738,0 -0.4585,-0.68634 -0.6327,-1.5252 -0.1741,-0.83885 -0.6407,-2.40085 -1.0369,-3.4711 -0.3961,-1.07025 -0.8597,-2.32845 -1.0302,-2.79598 -1.1233,-3.08077 -5.9957,-9.56631 -9.2646,-12.3319 -0.8251,-0.69805 -1.6431,-1.3967 -1.8178,-1.55255 -1.337,-1.19302 -3.0288,-2.40852 -3.3523,-2.40852 -0.6863,0 -4.0902,4.86046 -5.3579,7.6506 -2.0617,4.53747 -3.063,11.1475 -2.5245,16.66558 0.4254,4.3597 1.4066,7.72323 3.3191,11.37852 1.4207,2.71512 1.468,2.54182 -1.0435,3.81834 -2.225,1.13087 -8.0254,2.96917 -12.326,3.90645 -0.9912,0.21601 -23.8898,0.35888 -76.2228,0.47556 l -74.80601,0.16679 -0.2005,1.41678 c -0.6579,4.64682 -0.8404,9.0598 -0.5245,12.68018 0.592,6.78379 0.9748,9.01545 2.3451,13.67193 1.4265,4.84732 1.9342,6.19096 3.4262,9.06739 0.4851,0.93508 1.2413,2.40145 1.6806,3.2586 1.0244,1.99909 2.8267,4.76702 4.1699,6.40393 0.3965,0.48318 1.1605,1.4395 1.6978,2.12517 0.975,1.24422 6.7684,7.10017 7.8211,7.90554 0.3056,0.23377 1.3837,1.07812 2.3959,1.87633 4.8429,3.81902 12.31861,7.86129 17.9917,9.72847 1.09091,0.35905 2.2385,0.74617 2.5502,0.86026 0.87801,0.32139 2.41201,0.75501 3.96701,1.12137 0.7792,0.18359 1.8631,0.44375 2.4085,0.57813 1.9955,0.49161 4.8894,0.99367 9.0674,1.5731 3.155,0.43755 24.5152,0.33112 27.3439,-0.13625 z m -52.1375,-89.41564 v -11.05088 h -11.19261 -11.1926 l -0.074,10.76663 c -0.041,5.92165 -0.012,10.9279 0.063,11.12502 0.1083,0.28228 2.5008,0.34264 11.2669,0.28425 l 11.12931,-0.0741 z m 26.4262,-0.0741 0.074,-11.12497 -11.2667,0.0741 -11.2667,0.0741 -0.085,9.6341 c -0.046,5.29876 -0.01,10.305 0.092,11.12499 l 0.17629,1.49089 11.10091,-0.0741 11.1009,-0.0741 z m 26.8447,0.0741 v -11.05088 h -11.1926 -11.1925 l -0.074,10.76663 c -0.041,5.92165 -0.012,10.9279 0.063,11.12502 0.1083,0.28228 2.5008,0.34264 11.2668,0.28425 l 11.1294,-0.0741 z m 26.9929,-0.0741 0.074,-11.12497 -11.2667,0.0741 -11.2667,0.0741 -0.074,10.76663 c -0.041,5.92165 -0.012,10.9279 0.063,11.12502 0.1084,0.28228 2.5008,0.34264 11.2669,0.28425 l 11.1294,-0.0741 z m 26.8447,0.0741 v -11.05088 h -11.1925 -11.1926 l -0.074,10.76663 c -0.041,5.92165 -0.012,10.9279 0.063,11.12502 0.1083,0.28228 2.5008,0.34264 11.2669,0.28425 l 11.1293,-0.0741 z m -80.6822,-28.03343 c 0.058,-8.63615 0,-11.08209 -0.2834,-11.26237 -0.1966,-0.12667 -5.1696,-0.22511 -11.051,-0.21876 -9.7884,0.0106 -10.71381,0.0524 -10.93411,0.49484 -0.2583,0.51862 -0.3761,18.57105 -0.1359,20.81736 l 0.1443,1.3492 11.09291,-0.0741 11.093,-0.0741 z m 26.9188,0 c 0.058,-8.63752 0,-11.08134 -0.2834,-11.25906 -0.6137,-0.38958 -21.5832,-0.29 -21.9776,0.10436 -0.2526,0.25258 -0.34,3.11902 -0.34,11.14534 0,5.94292 0.087,10.89176 0.1921,10.99745 0.1057,0.10568 5.1742,0.1588 11.2634,0.11806 l 11.0713,-0.0741 z m 26.9188,0 c 0.058,-8.63752 0,-11.08134 -0.2833,-11.25906 -0.6137,-0.38958 -21.5833,-0.29 -21.9777,0.10436 -0.2526,0.25258 -0.34,3.11902 -0.34,11.14534 0,5.94292 0.086,10.89176 0.1921,10.99745 0.1057,0.10568 5.1743,0.1588 11.2634,0.11806 l 11.0713,-0.0741 z m 0.1204,-17.79939 c 0.049,-0.5065 0.025,-5.51128 -0.053,-11.12173 l -0.1417,-10.20082 h -11.1926 -11.1925 l -0.074,10.76664 c -0.041,5.92165 -0.013,10.92642 0.062,11.12172 0.106,0.27625 2.6193,0.35509 11.3197,0.35509 h 11.1835 z"
         id="path1815" /></clipPath></defs><g
     filter="url(#a)"
     id="g404"
     transform="translate(-301.13082,-99.402272)"
     clip-path="url(#clipPath1813)"><linearGradient
       id="linearGradient400"
       x1="0.50002003"
       x2="0.50002003"
       y1="-0.00051238999"
       y2="1"
       gradientTransform="matrix(244.65,0,0,228.34,5.676,11.947)"
       gradientUnits="userSpaceOnUse"><stop
         stop-color="#ebdbb2"
         offset="0"
         id="stop396" /><stop
         stop-color="#ebdbb2"
         offset="1"
         id="stop398" /></linearGradient><path
       d="m 466.81041,111.34927 c 72.707,0 84.639,12.053 84.639,84.544 v 59.251 c 0,72.561 -11.932,84.543 -84.639,84.543 h -75.37 c -72.29399,0 -84.63899,-11.982 -84.63899,-84.543 v -59.251 c 0,-72.491 12.329,-84.544 84.63899,-84.544 z"
       fill="url(#b)"
       id="path402"
       style="fill:url(#linearGradient406)" /></g></svg>
