<?xml version="1.0" encoding="UTF-8" standalone="no"?>
<svg
   class="icon icon-tabler icon-tabler-brand-linkedin"
   width="24"
   height="24"
   viewBox="0 0 24 24"
   stroke-width="1.5"
   stroke="#000000"
   fill="none"
   stroke-linecap="round"
   stroke-linejoin="round"
   version="1.1"
   id="svg14"
   sodipodi:docname="brand-linkedin.svg"
   inkscape:version="1.2.2 (b0a8486541, 2022-12-01)"
   xmlns:inkscape="http://www.inkscape.org/namespaces/inkscape"
   xmlns:sodipodi="http://sodipodi.sourceforge.net/DTD/sodipodi-0.dtd"
   xmlns="http://www.w3.org/2000/svg"
   xmlns:svg="http://www.w3.org/2000/svg">
  <defs
     id="defs18" />
  <sodipodi:namedview
     id="namedview16"
     pagecolor="#ffffff"
     bordercolor="#000000"
     borderopacity="0.25"
     inkscape:showpageshadow="2"
     inkscape:pageopacity="0.0"
     inkscape:pagecheckerboard="0"
     inkscape:deskcolor="#d1d1d1"
     showgrid="false"
     inkscape:zoom="30.958333"
     inkscape:cx="11.983849"
     inkscape:cy="12"
     inkscape:window-width="1920"
     inkscape:window-height="1052"
     inkscape:window-x="0"
     inkscape:window-y="0"
     inkscape:window-maximized="1"
     inkscape:current-layer="svg14" />
  <path
     stroke="none"
     d="M0 0h24v24H0z"
     fill="none"
     id="path2" />
  <path
     d="M4 4m0 2a2 2 0 0 1 2 -2h12a2 2 0 0 1 2 2v12a2 2 0 0 1 -2 2h-12a2 2 0 0 1 -2 -2z"
     id="path4"
     style="stroke-width:1.5;stroke-dasharray:none;stroke:#bdbdbd;stroke-opacity:1" />
  <path
     d="M8 11l0 5"
     id="path6"
     style="stroke:#bdbdbd;stroke-opacity:1" />
  <path
     d="M8 8l0 .01"
     id="path8"
     style="stroke:#bdbdbd;stroke-opacity:1;fill:#999999" />
  <path
     d="M12 16l0 -5"
     id="path10"
     style="stroke:#bdbdbd;stroke-opacity:1" />
  <path
     d="M16 16v-3a2 2 0 0 0 -4 0"
     id="path12"
     style="stroke:#bfbfbf;stroke-opacity:1" />
</svg>
